<svg width="187" height="40" viewBox="0 0 187 40" fill="none" xmlns="http://www.w3.org/2000/svg">
    <path
        d="M26.944 37.68C27.184 37.68 27.4 37.788 27.592 38.004C27.784 38.22 27.88 38.472 27.88 38.76C27.88 39.072 27.772 39.324 27.556 39.516C27.364 39.708 27.112 39.804 26.8 39.804C25.864 39.804 24.796 39.54 23.596 39.012C22.396 38.508 21.184 37.8 19.96 36.888C17.752 35.208 15.892 34.368 14.38 34.368C12.22 34.368 10.312 35.196 8.656 36.852C8.464 37.044 8.2 37.14 7.864 37.14C7.576 37.14 7.324 37.032 7.108 36.816C6.916 36.6 6.82 36.348 6.82 36.06C6.82 35.916 6.856 35.772 6.928 35.628C7 35.484 7.084 35.376 7.18 35.304C8.092 34.392 9.172 33.72 10.42 33.288C8.404 32.76 6.616 31.812 5.056 30.444C3.52 29.076 2.32 27.396 1.456 25.404C0.592 23.412 0.16 21.228 0.16 18.852C0.16 16.02 0.772 13.464 1.996 11.184C3.22 8.904 4.888 7.128 7 5.856C9.136 4.56 11.524 3.912 14.164 3.912C16.78 3.912 19.156 4.56 21.292 5.856C23.428 7.128 25.096 8.904 26.296 11.184C27.52 13.464 28.132 16.02 28.132 18.852C28.132 21.252 27.688 23.46 26.8 25.476C25.912 27.492 24.676 29.184 23.092 30.552C21.532 31.92 19.732 32.856 17.692 33.36C18.844 33.792 19.936 34.392 20.968 35.16C22.048 35.952 23.104 36.564 24.136 36.996C25.192 37.452 26.128 37.68 26.944 37.68ZM2.392 18.852C2.392 21.252 2.896 23.424 3.904 25.368C4.936 27.312 6.352 28.836 8.152 29.94C9.952 31.02 11.956 31.56 14.164 31.56C16.372 31.56 18.364 31.02 20.14 29.94C21.94 28.836 23.344 27.312 24.352 25.368C25.384 23.424 25.9 21.252 25.9 18.852C25.9 16.452 25.384 14.28 24.352 12.336C23.344 10.392 21.94 8.88 20.14 7.8C18.364 6.696 16.372 6.144 14.164 6.144C11.956 6.144 9.952 6.696 8.152 7.8C6.352 8.88 4.936 10.392 3.904 12.336C2.896 14.28 2.392 16.452 2.392 18.852ZM49.8566 31.524C50.4566 31.836 50.7566 32.196 50.7566 32.604C50.7566 32.916 50.6366 33.144 50.3966 33.288C50.1566 33.456 49.8806 33.54 49.5686 33.54C48.8246 33.54 48.1766 33.228 47.6246 32.604C47.0966 31.98 46.7726 31.128 46.6526 30.048C45.9806 31.032 45.1406 31.836 44.1326 32.46C43.1486 33.06 42.0206 33.36 40.7486 33.36C39.5486 33.36 38.4686 33.096 37.5086 32.568C36.5486 32.016 35.7926 31.26 35.2406 30.3C34.6886 29.34 34.4126 28.248 34.4126 27.024C34.4126 23.64 34.4246 20.928 34.4486 18.888C34.4486 18.432 34.3406 17.964 34.1246 17.484C33.9086 16.98 33.6686 16.656 33.4046 16.512C33.1166 16.32 32.8886 16.152 32.7206 16.008C32.5766 15.84 32.5046 15.648 32.5046 15.432C32.5046 15.12 32.6246 14.88 32.8646 14.712C33.1046 14.544 33.3806 14.46 33.6926 14.46C34.5326 14.46 35.2286 14.856 35.7806 15.648C36.3326 16.416 36.6086 17.46 36.6086 18.78L36.5726 26.808C36.5726 28.08 36.9806 29.136 37.7966 29.976C38.6126 30.792 39.6206 31.2 40.8206 31.2C41.7326 31.2 42.6326 30.936 43.5206 30.408C44.4086 29.856 45.1406 29.148 45.7166 28.284C46.2926 27.396 46.6166 26.484 46.6886 25.548L46.8686 15.756C46.8926 15.468 47.0006 15.228 47.1926 15.036C47.4086 14.844 47.6606 14.748 47.9486 14.748C48.2366 14.748 48.4886 14.856 48.7046 15.072C48.9206 15.264 49.0286 15.504 49.0286 15.792L48.8126 29.112C48.7886 29.544 48.8846 30.024 49.1006 30.552C49.3406 31.056 49.5926 31.38 49.8566 31.524ZM57.7541 9.06C57.2741 9.06 56.8781 8.904 56.5661 8.592C56.2541 8.28 56.0981 7.896 56.0981 7.44C56.0981 7.008 56.2541 6.636 56.5661 6.324C56.9021 6.012 57.2981 5.856 57.7541 5.856C58.1861 5.856 58.5461 6.012 58.8341 6.324C59.1461 6.612 59.3021 6.984 59.3021 7.44C59.3021 7.896 59.1461 8.28 58.8341 8.592C58.5461 8.904 58.1861 9.06 57.7541 9.06ZM57.7541 33.432C57.4661 33.432 57.2141 33.324 56.9981 33.108C56.7821 32.916 56.6741 32.676 56.6741 32.388L56.7821 24.972L56.8901 18.888C56.9141 18.432 56.8181 17.964 56.6021 17.484C56.3861 16.98 56.1461 16.656 55.8821 16.512C55.5941 16.32 55.3661 16.152 55.1981 16.008C55.0541 15.864 54.9821 15.684 54.9821 15.468C54.9821 15.156 55.1021 14.916 55.3421 14.748C55.5821 14.556 55.8581 14.46 56.1701 14.46C57.0101 14.46 57.6941 14.844 58.2221 15.612C58.7741 16.356 59.0501 17.364 59.0501 18.636C59.0501 19.932 59.0261 21.696 58.9781 23.928C58.9541 26.16 58.9301 27.864 58.9061 29.04L58.8341 32.388C58.8341 32.7 58.7261 32.952 58.5101 33.144C58.2941 33.336 58.0421 33.432 57.7541 33.432ZM73.2732 33.72C71.6412 33.72 70.1412 33.3 68.7732 32.46C67.4292 31.62 66.3492 30.48 65.5332 29.04C64.7412 27.6 64.3452 26.016 64.3452 24.288C64.3452 22.44 64.7292 20.772 65.4972 19.284C66.2652 17.796 67.3212 16.644 68.6652 15.828C70.0092 14.988 71.5212 14.568 73.2012 14.568C75.0972 14.568 76.6812 15.072 77.9532 16.08C79.2252 17.064 79.9332 18.348 80.0772 19.932V20.112C80.0772 20.52 79.9812 20.832 79.7892 21.048C79.5972 21.24 79.3332 21.336 78.9972 21.336C78.7332 21.336 78.5052 21.24 78.3132 21.048C78.1212 20.856 78.0132 20.556 77.9892 20.148C77.8932 19.212 77.3892 18.408 76.4772 17.736C75.5892 17.064 74.4972 16.728 73.2012 16.728C71.9532 16.728 70.8132 17.052 69.7812 17.7C68.7732 18.348 67.9692 19.26 67.3692 20.436C66.7932 21.588 66.5052 22.92 66.5052 24.432C66.5052 25.752 66.8052 26.952 67.4052 28.032C68.0052 29.112 68.8212 29.976 69.8532 30.624C70.9092 31.248 72.0492 31.56 73.2732 31.56C74.4732 31.56 75.5772 31.368 76.5852 30.984C77.5932 30.6 78.3372 30.108 78.8172 29.508C78.9132 29.412 79.0332 29.328 79.1772 29.256C79.3452 29.184 79.5012 29.148 79.6452 29.148C79.9572 29.148 80.2092 29.256 80.4012 29.472C80.6172 29.664 80.7252 29.916 80.7252 30.228C80.7252 30.42 80.6292 30.66 80.4372 30.948C79.8132 31.764 78.8292 32.436 77.4852 32.964C76.1652 33.468 74.7612 33.72 73.2732 33.72ZM101.021 31.344C101.237 31.512 101.345 31.776 101.345 32.136C101.345 32.448 101.237 32.712 101.021 32.928C100.829 33.12 100.577 33.216 100.265 33.216C99.9773 33.216 99.7253 33.108 99.5093 32.892L88.5653 23.172L88.4933 32.064C88.4933 32.376 88.3733 32.64 88.1333 32.856C87.9173 33.048 87.6653 33.144 87.3773 33.144C87.0653 33.144 86.8133 33.048 86.6213 32.856C86.4293 32.64 86.3333 32.376 86.3333 32.064C86.3333 29.448 86.3573 25.188 86.4053 19.284C86.4533 13.38 86.5133 8.688 86.5853 5.208C86.5853 4.752 86.4773 4.284 86.2613 3.804C86.0453 3.3 85.8053 2.976 85.5413 2.832C85.2533 2.64 85.0253 2.472 84.8573 2.328C84.7133 2.16 84.6413 1.968 84.6413 1.752C84.6413 1.44 84.7613 1.2 85.0013 1.032C85.2413 0.863998 85.5173 0.779999 85.8293 0.779999C86.6693 0.779999 87.3653 1.176 87.9173 1.968C88.4693 2.736 88.7453 3.78 88.7453 5.1C88.7453 6.348 88.7213 8.892 88.6733 12.732C88.6493 13.548 88.6253 14.592 88.6013 15.864C88.5773 17.136 88.5653 18.636 88.5653 20.364L99.4373 14.532C99.5573 14.436 99.7373 14.388 99.9773 14.388C100.265 14.388 100.517 14.496 100.733 14.712C100.949 14.904 101.057 15.156 101.057 15.468C101.057 15.66 101.009 15.84 100.913 16.008C100.817 16.176 100.685 16.296 100.517 16.368L90.2573 21.84L101.021 31.344Z"
        fill="black" />
    <path
        d="M127.603 26.556C127.795 26.316 128.035 26.124 128.323 25.98C128.635 25.836 128.935 25.764 129.223 25.764C129.823 25.764 130.327 25.98 130.735 26.412C131.167 26.82 131.383 27.324 131.383 27.924C131.383 28.5 131.179 29.016 130.771 29.472C129.667 30.648 128.119 31.62 126.127 32.388C124.135 33.132 122.155 33.504 120.187 33.504C117.331 33.504 114.751 32.88 112.447 31.632C110.143 30.384 108.331 28.632 107.011 26.376C105.691 24.12 105.031 21.528 105.031 18.6C105.031 15.696 105.691 13.104 107.011 10.824C108.331 8.544 110.143 6.78 112.447 5.532C114.751 4.26 117.331 3.624 120.187 3.624C122.155 3.624 124.123 4.02 126.091 4.812C128.059 5.604 129.607 6.648 130.735 7.944C131.143 8.424 131.347 8.94 131.347 9.492C131.347 10.092 131.131 10.608 130.699 11.04C130.267 11.448 129.751 11.652 129.151 11.652C128.863 11.652 128.575 11.592 128.287 11.472C127.999 11.352 127.771 11.184 127.603 10.968C126.907 10.128 125.875 9.468 124.507 8.988C123.139 8.508 121.699 8.268 120.187 8.268C118.123 8.268 116.287 8.688 114.679 9.528C113.095 10.344 111.859 11.532 110.971 13.092C110.107 14.628 109.675 16.464 109.675 18.6C109.675 20.712 110.119 22.548 111.007 24.108C111.895 25.644 113.131 26.832 114.715 27.672C116.299 28.488 118.123 28.896 120.187 28.896C121.843 28.896 123.355 28.68 124.723 28.248C126.091 27.816 127.051 27.252 127.603 26.556ZM151.539 29.94C152.211 30.156 152.691 30.408 152.979 30.696C153.291 30.984 153.447 31.38 153.447 31.884C153.447 32.484 153.183 32.988 152.655 33.396C152.151 33.828 151.539 34.044 150.819 34.044C149.739 34.044 148.803 33.72 148.011 33.072C147.243 32.424 146.787 31.572 146.643 30.516C146.475 29.508 146.391 28.224 146.391 26.664C146.391 25.728 146.403 25.008 146.427 24.504C145.563 25.032 144.399 25.56 142.935 26.088C141.519 26.568 140.511 27.012 139.911 27.42C139.335 27.828 139.047 28.296 139.047 28.824C139.047 29.136 139.179 29.388 139.443 29.58C139.731 29.772 140.079 29.868 140.487 29.868C140.775 29.868 141.087 29.82 141.423 29.724C141.783 29.604 142.083 29.436 142.323 29.22C142.659 28.884 143.115 28.716 143.691 28.716C144.291 28.716 144.771 28.908 145.131 29.292C145.491 29.676 145.671 30.156 145.671 30.732C145.671 30.972 145.599 31.26 145.455 31.596C145.335 31.908 145.191 32.16 145.023 32.352C144.015 33.504 142.503 34.08 140.487 34.08C138.831 34.08 137.487 33.648 136.455 32.784C135.423 31.896 134.907 30.744 134.907 29.328C134.907 26.232 137.355 23.94 142.251 22.452C143.763 21.972 144.891 21.516 145.635 21.084C146.379 20.628 146.763 20.16 146.787 19.68C146.763 19.176 146.487 18.78 145.959 18.492C145.431 18.18 144.723 18.024 143.835 18.024C141.987 18.024 140.727 18.66 140.055 19.932C139.863 20.292 139.587 20.592 139.227 20.832C138.891 21.048 138.531 21.156 138.147 21.156C137.547 21.156 137.031 20.952 136.599 20.544C136.167 20.112 135.951 19.596 135.951 18.996C135.951 18.108 136.323 17.28 137.067 16.512C137.811 15.72 138.795 15.084 140.019 14.604C141.243 14.124 142.515 13.884 143.835 13.884C146.115 13.884 147.867 14.4 149.091 15.432C150.315 16.464 150.927 17.94 150.927 19.86V20.256C150.783 24.624 150.711 27.096 150.711 27.672C150.711 28.056 150.759 28.512 150.855 29.04C150.879 29.232 150.963 29.424 151.107 29.616C151.275 29.784 151.419 29.892 151.539 29.94ZM166.144 14.136C167.152 14.136 168.076 14.352 168.916 14.784C169.78 15.216 170.452 15.816 170.932 16.584C171.412 17.328 171.652 18.168 171.652 19.104C171.652 20.232 171.328 21.228 170.68 22.092C170.032 22.932 169.168 23.592 168.088 24.072C167.704 24.168 167.428 24.216 167.26 24.216C166.66 24.216 166.144 24.012 165.712 23.604C165.28 23.172 165.064 22.656 165.064 22.056C165.064 21.6 165.184 21.192 165.424 20.832C165.688 20.448 166.024 20.184 166.432 20.04C166.648 19.944 166.852 19.8 167.044 19.608C167.236 19.416 167.332 19.248 167.332 19.104C167.332 18.84 167.2 18.6 166.936 18.384C166.696 18.168 166.432 18.06 166.144 18.06H162.436C162.628 18.78 162.724 19.512 162.724 20.256C162.7 21.672 162.652 23.58 162.58 25.98C162.508 28.38 162.448 30.228 162.4 31.524C162.352 32.124 162.124 32.628 161.716 33.036C161.308 33.468 160.816 33.684 160.24 33.684C159.64 33.684 159.124 33.468 158.692 33.036C158.284 32.604 158.08 32.1 158.08 31.524L158.188 27.276C158.332 23.484 158.404 21.096 158.404 20.112C158.404 18.96 158.068 18.192 157.396 17.808C157.036 17.616 156.772 17.364 156.604 17.052C156.46 16.716 156.388 16.368 156.388 16.008C156.388 15.408 156.58 14.952 156.964 14.64C157.348 14.304 157.852 14.136 158.476 14.136H166.144ZM181.466 19.176V26.916C181.466 28.26 182.198 29.136 183.662 29.544C184.19 29.688 184.634 29.976 184.994 30.408C185.354 30.84 185.534 31.308 185.534 31.812C185.534 32.364 185.306 32.832 184.85 33.216C184.418 33.6 183.902 33.792 183.302 33.792C181.31 33.792 179.786 33.216 178.73 32.064C177.674 30.912 177.146 29.22 177.146 26.988V19.176H176.246C175.646 19.176 175.13 18.972 174.698 18.564C174.29 18.132 174.086 17.616 174.086 17.016C174.086 16.416 174.29 15.912 174.698 15.504C175.13 15.072 175.646 14.856 176.246 14.856H177.146V9.096C177.146 8.496 177.35 7.992 177.758 7.584C178.19 7.152 178.706 6.936 179.306 6.936C179.906 6.936 180.41 7.152 180.818 7.584C181.25 7.992 181.466 8.496 181.466 9.096V14.856H184.274C184.874 14.856 185.378 15.072 185.786 15.504C186.218 15.912 186.434 16.416 186.434 17.016C186.434 17.616 186.218 18.132 185.786 18.564C185.378 18.972 184.874 19.176 184.274 19.176H181.466Z"
        fill="#EC8814" />
</svg>